<svg viewBox="15 15 280 360" fill="none" xmlns="http://www.w3.org/2000/svg">
  <style>
    .brand-navy { fill: #0A1229; }
    .brand-blue { fill: #1857FF; }
    @media (prefers-color-scheme: dark) {
      .brand-navy { fill: #ffffff; }
    }
  </style>
  
  {/* Cobalt Blue brand accent */}
  <path d="M 289.14 286.09 C288.19,286.86 287.48,287.46 286.66,287.76 C284.03,288.71 280.25,286.48 263.24,276.43 C262.83,276.19 262.42,275.94 262.00,275.70 C241.19,263.41 241.68,263.73 240.29,261.00 C239.35,259.13 239.03,249.66 239.01,223.32 C239.01,202.58 238.59,187.06 238.01,185.53 C237.43,184.00 234.64,181.46 231.26,179.39 C216.15,170.13 182.27,150.08 155.69,134.68 C146.16,129.16 141.44,125.82 140.44,123.89 C139.31,121.70 139.00,116.21 139.00,98.20 C139.00,77.29 139.16,75.17 140.83,73.65 C143.72,71.04 149.00,71.61 154.55,75.14 C157.27,76.86 163.55,80.62 168.50,83.49 C173.45,86.35 188.07,94.91 201.00,102.50 C244.51,128.04 247.48,129.78 254.24,133.65 C289.74,153.95 290.43,154.50 291.49,163.20 C291.85,166.11 291.99,194.53 291.82,226.34 L 291.50 284.18 Z" class="brand-blue" />

  {/* Theme-aware primary navy segment */}
  <path d="M 214.00 342.30 C185.12,359.10 160.38,373.08 159.00,373.36 C155.19,374.14 151.80,372.72 140.69,365.72 C127.90,357.66 107.66,345.09 80.00,328.03 C68.18,320.74 56.92,313.76 55.00,312.53 C53.08,311.30 46.33,307.12 40.00,303.23 C25.19,294.13 19.15,289.51 17.96,286.39 C17.37,284.84 17.00,240.94 17.00,172.49 L 17.00 61.11 L 19.25 58.71 C20.49,57.39 25.10,54.05 29.50,51.28 C33.90,48.50 42.67,42.98 49.00,39.00 C55.33,35.02 64.57,29.12 69.55,25.88 C78.79,19.87 83.55,18.55 85.87,21.34 C86.66,22.30 87.05,56.43 87.24,142.23 C87.50,260.18 87.53,261.82 89.50,264.04 C90.60,265.28 93.30,267.14 95.50,268.18 C97.70,269.22 104.00,272.95 109.50,276.48 C115.00,280.00 121.30,283.97 123.50,285.29 C125.70,286.61 134.25,291.81 142.50,296.84 C150.94,301.99 158.60,306.00 160.03,306.00 C161.42,306.00 167.49,303.16 173.53,299.68 C179.56,296.21 191.94,289.24 201.04,284.18 C211.71,278.26 216.83,275.12 221.98,275.07 C227.21,275.01 232.48,278.14 243.65,284.77 C244.65,285.36 245.71,285.99 246.81,286.64 C257.64,293.05 267.29,298.97 268.25,299.80 C270.51,301.75 270.51,307.20 268.25,309.76 C267.29,310.86 242.88,325.50 214.00,342.30 Z" class="brand-navy" />

  {/* Slate Grey graphic details */}
  <path d="M 104.66 273.45 C100.71,271.02 97.07,268.92 95.50,268.18 C93.30,267.14 90.60,265.28 89.50,264.04 C87.53,261.82 87.50,260.18 87.24,142.23 C87.05,56.43 86.66,22.30 85.87,21.34 C83.55,18.55 78.79,19.87 69.55,25.88 C64.57,29.12 55.33,35.02 49.00,39.00 C48.65,39.22 48.29,39.45 47.92,39.68 C48.48,39.33 49.01,38.99 49.50,38.68 C53.90,35.90 62.58,30.34 68.78,26.31 C74.99,22.29 81.14,19.00 82.46,19.00 C83.88,19.00 85.73,20.12 87.00,21.73 L 89.15 24.47 L 88.74 141.48 C88.50,209.23 88.70,259.61 89.22,261.14 C89.92,263.21 94.44,266.84 104.66,273.45 ZM 26.58 53.18 C23.22,55.43 20.21,57.69 19.25,58.71 L 17.00 61.11 L 17.00 172.49 C17.00,240.94 17.37,284.84 17.96,286.39 C18.76,288.49 21.74,291.26 28.11,295.61 C26.24,294.36 24.71,293.29 23.78,292.59 C22.16,291.37 20.87,290.76 19.83,289.85 C15.56,286.15 15.56,277.53 15.58,201.99 C15.58,193.27 15.59,183.66 15.58,173.07 C15.54,68.50 15.64,62.20 17.32,59.63 C18.30,58.13 20.13,56.52 21.38,56.05 C22.10,55.77 24.09,54.67 26.58,53.18 ZM 126.92 287.36 C125.34,286.40 124.15,285.68 123.50,285.29 C121.78,284.26 117.56,281.61 113.17,278.82 C116.70,281.01 122.71,284.74 126.80,287.28 ZM 159.66 305.94 C159.80,305.97 159.92,305.99 160.03,306.00 C159.93,306.00 159.81,305.98 159.66,305.94 Z" fill="rgb(142,147,164)" />
</svg>
