<svg xmlns="http://www.w3.org/2000/svg" width="1510" height="394" viewBox="0 0 1510 394">
<g>
<path d="M 289.14 286.09 C288.19,286.86 287.48,287.46 286.66,287.76 C284.03,288.71 280.25,286.48 263.24,276.43 C262.83,276.19 262.42,275.94 262.00,275.70 C241.19,263.41 241.68,263.73 240.29,261.00 C239.35,259.13 239.03,249.66 239.01,223.32 C239.01,202.58 238.59,187.06 238.01,185.53 C237.43,184.00 234.64,181.46 231.26,179.39 C216.15,170.13 182.27,150.08 155.69,134.68 C146.16,129.16 141.44,125.82 140.44,123.89 C139.31,121.70 139.00,116.21 139.00,98.20 C139.00,77.29 139.16,75.17 140.83,73.65 C143.72,71.04 149.00,71.61 154.55,75.14 C157.27,76.86 163.55,80.62 168.50,83.49 C173.45,86.35 188.07,94.91 201.00,102.50 C244.51,128.04 247.48,129.78 254.24,133.65 C289.74,153.95 290.43,154.50 291.49,163.20 C291.85,166.11 291.99,194.53 291.82,226.34 L 291.50 284.18 Z" fill="rgb(2,39,253)"/>
<path d="M 214.00 342.30 C185.12,359.10 160.38,373.08 159.00,373.36 C155.19,374.14 151.80,372.72 140.69,365.72 C127.90,357.66 107.66,345.09 80.00,328.03 C68.18,320.74 56.92,313.76 55.00,312.53 C53.08,311.30 46.33,307.12 40.00,303.23 C25.19,294.13 19.15,289.51 17.96,286.39 C17.37,284.84 17.00,240.94 17.00,172.49 L 17.00 61.11 L 19.25 58.71 C20.49,57.39 25.10,54.05 29.50,51.28 C33.90,48.50 42.67,42.98 49.00,39.00 C55.33,35.02 64.57,29.12 69.55,25.88 C78.79,19.87 83.55,18.55 85.87,21.34 C86.66,22.30 87.05,56.43 87.24,142.23 C87.50,260.18 87.53,261.82 89.50,264.04 C90.60,265.28 93.30,267.14 95.50,268.18 C97.70,269.22 104.00,272.95 109.50,276.48 C115.00,280.00 121.30,283.97 123.50,285.29 C125.70,286.61 134.25,291.81 142.50,296.84 C150.94,301.99 158.60,306.00 160.03,306.00 C161.42,306.00 167.49,303.16 173.53,299.68 C179.56,296.21 191.94,289.24 201.04,284.18 C211.71,278.26 216.83,275.12 221.98,275.07 C227.21,275.01 232.48,278.14 243.65,284.77 C244.65,285.36 245.71,285.99 246.81,286.64 C257.64,293.05 267.29,298.97 268.25,299.80 C270.51,301.75 270.51,307.20 268.25,309.76 C267.29,310.86 242.88,325.50 214.00,342.30 ZM 519.45 299.58 C514.28,301.09 507.95,301.35 471.00,301.58 C428.45,301.84 424.16,301.62 414.11,298.63 C399.88,294.39 390.49,284.39 386.58,269.30 C385.21,264.02 385.00,253.34 385.00,189.11 L 385.00 115.00 L 410.00 115.00 L 410.00 146.08 C410.00,163.18 410.34,177.00 410.75,176.79 C411.16,176.58 414.65,174.86 418.50,172.96 L 425.50 169.50 L 468.36 169.20 C514.33,168.88 520.98,169.40 530.09,174.05 C540.70,179.46 548.72,191.39 550.94,205.08 C552.54,214.91 552.26,258.10 550.55,266.16 C546.73,284.18 537.26,294.36 519.45,299.58 ZM 1200.00 299.13 C1192.81,301.26 1190.74,301.36 1150.00,301.55 C1126.62,301.66 1105.93,301.56 1104.00,301.33 C1102.07,301.09 1096.90,299.79 1092.50,298.43 C1078.94,294.25 1069.71,285.10 1065.33,271.50 C1063.16,264.78 1062.21,218.08 1063.99,205.58 C1066.74,186.17 1077.48,174.34 1095.87,170.44 C1105.55,168.39 1188.56,168.41 1198.27,170.47 C1207.98,172.53 1216.13,177.18 1220.94,183.43 C1225.98,189.96 1227.45,193.49 1229.42,203.88 C1231.55,215.13 1231.64,254.50 1229.55,265.41 C1226.03,283.78 1217.02,294.07 1200.00,299.13 ZM 1010.88 299.17 L 1003.50 301.50 L 942.19 301.52 C908.46,301.53 880.68,301.34 880.44,301.10 C880.20,300.86 880.00,296.03 880.00,290.36 L 880.00 280.06 L 939.25 279.78 C996.75,279.51 998.60,279.44 1002.00,277.47 C1006.75,274.71 1009.00,269.89 1009.00,262.50 C1009.00,255.11 1006.75,250.29 1002.00,247.53 C998.66,245.59 996.38,245.47 952.50,244.93 C919.76,244.52 905.39,243.99 902.64,243.10 C891.98,239.64 883.86,231.28 882.30,222.15 C881.86,219.59 881.52,211.88 881.55,205.00 C881.60,194.19 881.92,191.79 883.92,187.27 C886.85,180.63 893.03,174.93 900.58,171.89 L 906.50 169.50 L 967.75 169.21 L 1029.00 168.93 L 1029.00 191.00 L 916.42 191.00 L 911.96 193.25 C906.62,195.95 905.14,199.34 905.06,209.12 C904.99,216.53 906.67,219.67 912.34,222.77 C915.17,224.32 920.45,224.55 963.00,225.00 C1009.92,225.49 1010.56,225.53 1015.50,227.80 C1022.04,230.81 1027.32,236.06 1030.18,242.39 C1032.26,247.00 1032.49,248.98 1032.50,262.50 C1032.50,276.12 1032.28,277.98 1030.14,282.71 C1026.60,290.56 1019.82,296.34 1010.88,299.17 ZM 1106.33 279.07 C1111.90,280.44 1185.94,279.57 1190.50,278.08 C1195.66,276.39 1202.43,269.59 1204.02,264.50 C1205.78,258.88 1206.53,220.07 1205.05,211.27 C1202.69,197.31 1197.35,192.54 1182.28,190.96 C1170.90,189.76 1123.07,189.76 1111.68,190.96 C1100.29,192.16 1095.54,194.80 1091.45,202.18 L 1088.50 207.50 L 1088.50 262.50 L 1091.24 267.70 C1094.12,273.15 1099.85,277.47 1106.33,279.07 ZM 428.40 279.09 C433.65,280.40 506.94,279.55 511.28,278.13 C516.16,276.53 521.54,271.76 524.31,266.59 C526.41,262.68 526.50,261.36 526.50,236.00 C526.50,207.53 526.09,204.64 521.29,198.93 C514.97,191.43 506.63,190.02 468.47,190.01 C427.28,190.00 418.48,191.99 413.02,202.61 C410.55,207.40 410.49,208.02 410.18,233.12 C409.84,260.16 410.28,264.15 414.29,270.10 C416.69,273.67 423.14,277.78 428.40,279.09 ZM 705.64 299.29 C699.95,301.17 696.65,301.34 660.50,301.59 C639.05,301.73 620.60,301.64 619.50,301.39 C612.45,299.79 605.09,297.56 602.64,296.30 C597.77,293.80 590.94,286.82 588.33,281.67 C583.42,271.98 583.04,267.21 583.02,216.25 L 583.00 169.00 L 607.93 169.00 L 608.21 215.75 L 608.50 262.50 L 611.58 267.92 C613.93,272.07 615.93,274.07 620.08,276.42 L 625.50 279.50 L 662.00 279.50 C702.16,279.50 706.60,279.02 714.37,273.88 C717.65,271.71 719.70,269.28 721.71,265.18 L 724.50 259.50 L 725.08 169.00 L 750.01 169.00 L 749.50 300.50 L 726.50 300.50 L 726.20 293.75 C726.04,290.04 725.55,287.00 725.11,287.00 C724.67,287.00 723.45,287.95 722.40,289.12 C718.99,292.91 711.90,297.21 705.64,299.29 ZM 1306.76 245.77 L 1306.50 300.50 L 1283.00 301.06 L 1283.00 191.06 L 1256.50 190.50 L 1256.22 179.78 L 1255.93 169.06 L 1269.22 168.78 L 1282.50 168.50 L 1283.12 156.50 C1284.12,136.96 1289.72,126.85 1303.16,120.33 C1312.77,115.66 1317.79,115.00 1343.58,115.00 L 1367.07 115.00 L 1366.50 136.50 L 1344.00 137.03 C1319.21,137.62 1316.55,138.18 1311.74,143.89 C1308.61,147.62 1307.58,151.93 1307.53,161.50 L 1307.50 168.50 L 1335.28 168.77 L 1363.07 169.03 L 1362.78 179.77 L 1362.50 190.50 L 1334.76 190.77 L 1307.02 191.03 ZM 1491.90 300.62 C1490.98,301.73 1486.02,301.98 1466.63,301.88 C1453.36,301.82 1440.47,301.41 1438.00,300.98 C1420.16,297.88 1408.29,286.37 1405.00,268.98 C1404.45,266.09 1404.00,247.38 1404.00,227.39 L 1404.00 191.06 L 1378.50 190.50 L 1378.50 169.50 L 1403.50 168.50 L 1404.05 135.00 L 1428.95 135.00 L 1429.50 168.50 L 1457.28 168.77 L 1485.07 169.03 L 1484.78 179.77 L 1484.50 190.50 L 1456.75 190.77 L 1429.00 191.03 L 1429.00 225.83 C1429.00,265.77 1429.37,268.39 1435.89,274.28 C1441.27,279.14 1446.44,280.00 1470.39,280.00 L 1490.68 280.00 L 1491.86 289.62 C1492.75,296.85 1492.76,299.58 1491.90,300.62 ZM 853.80 300.80 C852.42,302.18 821.21,302.32 814.50,300.98 C801.73,298.42 793.73,292.39 788.27,281.22 L 784.50 273.50 L 783.94 115.00 L 809.00 115.00 L 809.01 188.75 C809.01,236.40 809.38,263.82 810.04,266.22 C810.61,268.26 812.24,271.32 813.66,273.00 C818.48,278.73 820.93,279.40 838.75,279.82 L 855.00 280.21 L 855.00 289.90 C855.00,296.11 854.57,300.03 853.80,300.80 Z" fill="rgb(8,20,55)"/>
<path d="M 104.66 273.45 C100.71,271.02 97.07,268.92 95.50,268.18 C93.30,267.14 90.60,265.28 89.50,264.04 C87.53,261.82 87.50,260.18 87.24,142.23 C87.05,56.43 86.66,22.30 85.87,21.34 C83.55,18.55 78.79,19.87 69.55,25.88 C64.57,29.12 55.33,35.02 49.00,39.00 C48.65,39.22 48.29,39.45 47.92,39.68 C48.48,39.33 49.01,38.99 49.50,38.68 C53.90,35.90 62.58,30.34 68.78,26.31 C74.99,22.29 81.14,19.00 82.46,19.00 C83.88,19.00 85.73,20.12 87.00,21.73 L 89.15 24.47 L 88.74 141.48 C88.50,209.23 88.70,259.61 89.22,261.14 C89.92,263.21 94.44,266.84 104.66,273.45 ZM 26.58 53.18 C23.22,55.43 20.21,57.69 19.25,58.71 L 17.00 61.11 L 17.00 172.49 C17.00,240.94 17.37,284.84 17.96,286.39 C18.76,288.49 21.74,291.26 28.11,295.61 C26.24,294.36 24.71,293.29 23.78,292.59 C22.16,291.37 20.87,290.76 19.83,289.85 C15.56,286.15 15.56,277.53 15.58,201.99 C15.58,193.27 15.59,183.66 15.58,173.07 C15.54,68.50 15.64,62.20 17.32,59.63 C18.30,58.13 20.13,56.52 21.38,56.05 C22.10,55.77 24.09,54.67 26.58,53.18 ZM 1206.15 172.84 C1203.68,171.85 1201.04,171.06 1198.27,170.47 C1188.56,168.41 1105.55,168.39 1095.87,170.44 C1092.30,171.20 1089.02,172.25 1086.03,173.60 C1088.98,172.06 1091.66,171.00 1093.05,171.00 C1093.90,171.00 1095.06,170.54 1095.63,169.97 C1097.94,167.66 1116.22,166.81 1153.50,167.27 C1190.89,167.73 1191.62,167.77 1199.19,170.27 C1201.78,171.13 1204.08,171.97 1206.15,172.84 ZM 905.06 208.44 C905.23,214.71 907.74,219.13 912.47,221.44 C916.20,223.26 918.62,223.36 953.47,223.15 C973.83,223.02 994.60,223.35 999.60,223.88 C1004.29,224.38 1008.46,225.26 1012.13,226.55 C1007.78,225.49 999.04,225.38 963.00,225.00 C920.45,224.55 915.17,224.32 912.34,222.77 C906.67,219.67 904.99,216.53 905.06,209.12 C905.06,208.89 905.06,208.66 905.06,208.44 ZM 426.33 169.49 C429.01,168.72 431.93,168.37 437.00,167.96 C450.46,166.86 494.49,166.84 507.52,167.92 C514.22,168.47 520.23,169.86 525.51,172.04 C517.64,169.25 506.61,168.93 468.36,169.20 ZM 540.85 182.74 C546.06,188.61 549.49,196.11 550.94,205.08 C549.56,196.57 545.94,188.75 540.85,182.74 ZM 126.92 287.36 C125.34,286.40 124.15,285.68 123.50,285.29 C121.78,284.26 117.56,281.61 113.17,278.82 C116.70,281.01 122.71,284.74 126.80,287.28 ZM 413.68 175.33 C415.15,174.59 417.03,173.64 419.00,172.63 C420.67,171.78 422.05,171.11 423.33,170.57 L 418.50 172.96 C416.73,173.83 415.04,174.67 413.68,175.33 ZM 1211.60 175.47 C1215.46,177.65 1218.31,180.09 1220.74,183.17 C1218.39,180.20 1215.28,177.59 1211.60,175.47 ZM 1031.51 245.87 C1032.38,248.91 1032.50,252.61 1032.50,262.50 C1032.50,267.69 1032.47,271.17 1032.31,273.76 C1032.47,271.17 1032.50,267.69 1032.50,262.50 C1032.49,252.68 1032.37,248.94 1031.51,245.87 ZM 907.17 197.31 C908.23,195.58 909.77,194.35 911.96,193.25 C909.80,194.34 908.25,195.60 907.17,197.31 ZM 159.66 305.94 C159.80,305.97 159.92,305.99 160.03,306.00 C159.93,306.00 159.81,305.98 159.66,305.94 Z" fill="rgb(142,147,164)"/>
<path d="M 0.00 197.00 L 0.00 0.00 L 755.00 0.00 L 1510.00 0.00 L 1510.00 197.00 L 1510.00 394.00 L 755.00 394.00 L 0.00 394.00 L 0.00 197.00 ZM 214.00 342.30 C242.88,325.50 267.29,310.86 268.25,309.76 C270.51,307.20 270.51,301.75 268.25,299.80 C267.29,298.97 257.64,293.05 246.81,286.64 C221.35,271.58 223.53,271.70 201.04,284.18 C191.94,289.24 179.56,296.21 173.53,299.68 C167.49,303.16 161.46,306.00 160.12,306.00 C157.90,306.00 147.81,300.33 126.80,287.28 C122.56,284.65 116.26,280.74 112.80,278.59 C96.76,268.63 90.09,263.69 89.22,261.14 C88.70,259.61 88.50,209.23 88.74,141.48 L 89.15 24.47 L 87.00 21.73 C85.73,20.12 83.88,19.00 82.46,19.00 C81.14,19.00 74.99,22.29 68.78,26.31 C62.58,30.34 53.90,35.90 49.50,38.68 C45.10,41.46 37.48,46.31 32.58,49.46 C27.67,52.61 22.63,55.57 21.38,56.05 C20.13,56.52 18.30,58.13 17.32,59.63 C15.64,62.20 15.54,68.50 15.58,173.07 C15.63,297.90 14.80,285.79 23.78,292.59 C26.37,294.56 33.67,299.35 40.00,303.23 C46.33,307.12 53.08,311.30 55.00,312.53 C56.92,313.76 68.18,320.74 80.00,328.03 C107.66,345.09 127.90,357.66 140.69,365.72 C151.80,372.72 155.19,374.14 159.00,373.36 C160.38,373.08 185.12,359.10 214.00,342.30 ZM 519.45 299.58 C537.26,294.36 546.73,284.18 550.55,266.16 C552.26,258.10 552.54,214.91 550.94,205.08 C547.38,183.12 531.99,169.95 507.52,167.92 C494.49,166.84 450.46,166.86 437.00,167.96 C427.71,168.71 425.64,169.25 419.00,172.63 C414.88,174.73 411.16,176.61 410.75,176.81 C410.34,177.01 410.00,163.18 410.00,146.08 L 410.00 115.00 L 397.50 115.00 L 385.00 115.00 L 385.00 189.11 C385.00,253.34 385.21,264.02 386.58,269.30 C390.49,284.39 399.88,294.39 414.11,298.63 C424.16,301.62 428.45,301.84 471.00,301.58 C507.95,301.35 514.28,301.09 519.45,299.58 ZM 705.64 299.29 C711.90,297.21 718.99,292.91 722.40,289.12 C723.45,287.95 724.67,287.00 725.11,287.00 C725.55,287.00 726.04,290.04 726.20,293.75 L 726.50 300.50 L 738.00 300.50 L 749.50 300.50 L 749.76 234.75 L 750.01 169.00 L 737.55 169.00 L 725.08 169.00 L 724.79 214.25 L 724.50 259.50 L 721.71 265.18 C719.70,269.28 717.65,271.71 714.37,273.88 C706.60,279.02 702.16,279.50 662.00,279.50 L 625.50 279.50 L 620.08 276.42 C615.93,274.07 613.93,272.07 611.58,267.92 L 608.50 262.50 L 608.21 215.75 L 607.93 169.00 L 595.46 169.00 L 583.00 169.00 L 583.02 216.25 C583.04,267.21 583.42,271.98 588.33,281.67 C590.94,286.82 597.77,293.80 602.64,296.30 C605.09,297.56 612.45,299.79 619.50,301.39 C620.60,301.64 639.05,301.73 660.50,301.59 C696.65,301.34 699.95,301.17 705.64,299.29 ZM 853.80 300.80 C854.57,300.03 855.00,296.11 855.00,289.90 L 855.00 280.21 L 838.75 279.82 C820.93,279.40 818.48,278.73 813.66,273.00 C812.24,271.32 810.61,268.26 810.04,266.22 C809.38,263.82 809.01,236.40 809.01,188.75 L 809.00 115.00 L 796.47 115.00 L 783.94 115.00 L 784.22 194.25 L 784.50 273.50 L 788.27 281.22 C793.73,292.39 801.73,298.42 814.50,300.98 C821.21,302.32 852.42,302.18 853.80,300.80 ZM 1010.88 299.17 C1019.82,296.34 1026.60,290.56 1030.14,282.71 C1032.28,277.98 1032.50,276.12 1032.50,262.50 C1032.50,248.96 1032.28,247.01 1030.20,242.50 C1025.15,231.54 1015.31,225.55 999.60,223.88 C994.60,223.35 973.83,223.02 953.47,223.15 C918.62,223.36 916.20,223.26 912.47,221.44 C907.51,219.02 904.98,214.27 905.06,207.50 C905.15,199.35 906.85,195.83 911.96,193.25 L 916.42 191.00 L 972.71 191.00 L 1029.00 191.00 L 1029.00 179.96 L 1029.00 168.93 L 967.75 169.21 L 906.50 169.50 L 900.58 171.89 C893.03,174.93 886.85,180.63 883.92,187.27 C881.92,191.79 881.60,194.19 881.55,205.00 C881.52,211.88 881.86,219.59 882.30,222.15 C883.86,231.28 891.98,239.64 902.64,243.10 C905.39,243.99 919.76,244.52 952.50,244.93 C996.38,245.47 998.66,245.59 1002.00,247.53 C1006.75,250.29 1009.00,255.11 1009.00,262.50 C1009.00,269.89 1006.75,274.71 1002.00,277.47 C998.60,279.44 996.75,279.51 939.25,279.78 L 880.00 280.06 L 880.00 290.36 C880.00,296.03 880.20,300.86 880.44,301.10 C880.68,301.34 908.46,301.53 942.19,301.52 L 1003.50 301.50 L 1010.88 299.17 ZM 1200.00 299.13 C1217.02,294.07 1226.03,283.78 1229.55,265.41 C1231.64,254.50 1231.55,215.13 1229.42,203.88 C1227.45,193.50 1225.98,189.96 1220.97,183.46 C1216.45,177.61 1210.52,174.01 1199.19,170.27 C1191.62,167.77 1190.89,167.73 1153.50,167.27 C1116.22,166.81 1097.94,167.66 1095.63,169.97 C1095.06,170.54 1093.90,171.00 1093.05,171.00 C1089.78,171.00 1079.31,176.89 1075.10,181.10 C1069.17,187.03 1065.46,195.20 1063.99,205.58 C1062.21,218.08 1063.16,264.78 1065.33,271.50 C1069.71,285.10 1078.94,294.25 1092.50,298.43 C1096.90,299.79 1102.07,301.09 1104.00,301.33 C1105.93,301.56 1126.62,301.66 1150.00,301.55 C1190.74,301.36 1192.81,301.26 1200.00,299.13 ZM 1491.90 300.62 C1492.76,299.58 1492.75,296.85 1491.86,289.62 L 1490.68 280.00 L 1470.39 280.00 C1446.44,280.00 1441.27,279.14 1435.89,274.28 C1429.37,268.39 1429.00,265.77 1429.00,225.83 L 1429.00 191.03 L 1456.75 190.77 L 1484.50 190.50 L 1484.78 179.77 L 1485.07 169.03 L 1457.28 168.77 L 1429.50 168.50 L 1429.23 151.75 L 1428.95 135.00 L 1416.50 135.00 L 1404.05 135.00 L 1403.77 151.75 L 1403.50 168.50 L 1391.00 169.00 L 1378.50 169.50 L 1378.50 180.00 L 1378.50 190.50 L 1391.25 190.78 L 1404.00 191.06 L 1404.00 227.39 C1404.00,247.38 1404.45,266.09 1405.00,268.98 C1408.29,286.37 1420.16,297.88 1438.00,300.98 C1440.47,301.41 1453.36,301.82 1466.63,301.88 C1486.02,301.98 1490.98,301.73 1491.90,300.62 ZM 1306.76 245.77 L 1307.02 191.03 L 1334.76 190.77 L 1362.50 190.50 L 1362.78 179.77 L 1363.07 169.03 L 1335.28 168.77 L 1307.50 168.50 L 1307.53 161.50 C1307.58,151.93 1308.61,147.62 1311.74,143.89 C1316.55,138.18 1319.21,137.62 1344.00,137.03 L 1366.50 136.50 L 1366.78 125.75 L 1367.07 115.00 L 1343.58 115.00 C1317.79,115.00 1312.77,115.66 1303.16,120.33 C1289.72,126.85 1284.12,136.96 1283.12,156.50 L 1282.50 168.50 L 1269.22 168.78 L 1255.93 169.06 L 1256.22 179.78 L 1256.50 190.50 L 1269.75 190.78 L 1283.00 191.06 L 1283.00 246.06 L 1283.00 301.06 L 1294.75 300.78 L 1306.50 300.50 L 1306.76 245.77 ZM 289.14 286.09 L 291.50 284.18 L 291.82 226.34 C291.99,194.53 291.85,166.11 291.49,163.20 C290.43,154.50 289.74,153.95 254.24,133.65 C247.48,129.78 244.51,128.04 201.00,102.50 C188.07,94.91 173.45,86.35 168.50,83.49 C163.55,80.62 157.27,76.86 154.55,75.14 C149.00,71.61 143.72,71.04 140.83,73.65 C139.16,75.17 139.00,77.29 139.00,98.20 C139.00,116.21 139.31,121.70 140.44,123.89 C141.44,125.82 146.16,129.16 155.69,134.68 C182.27,150.08 216.15,170.13 231.26,179.39 C234.64,181.46 237.43,184.00 238.01,185.53 C238.59,187.06 239.01,202.58 239.01,223.32 C239.03,249.66 239.35,259.13 240.29,261.00 C241.68,263.73 241.19,263.41 262.00,275.70 C285.54,289.60 285.04,289.41 289.14,286.09 ZM 428.40 279.09 C423.14,277.78 416.69,273.67 414.29,270.10 C410.28,264.15 409.84,260.16 410.18,233.12 C410.49,208.02 410.55,207.40 413.02,202.61 C418.48,191.99 427.28,190.00 468.47,190.01 C506.63,190.02 514.97,191.43 521.29,198.93 C526.09,204.64 526.50,207.53 526.50,236.00 C526.50,261.36 526.41,262.68 524.31,266.59 C521.54,271.76 516.16,276.53 511.28,278.13 C506.94,279.55 433.65,280.40 428.40,279.09 ZM 1106.33 279.07 C1099.85,277.47 1094.12,273.15 1091.24,267.70 L 1088.50 262.50 L 1088.50 235.00 L 1088.50 207.50 L 1091.45 202.18 C1095.54,194.80 1100.29,192.16 1111.68,190.96 C1123.07,189.76 1170.90,189.76 1182.28,190.96 C1197.35,192.54 1202.69,197.31 1205.05,211.27 C1206.53,220.07 1205.78,258.88 1204.02,264.50 C1202.43,269.59 1195.66,276.39 1190.50,278.08 C1185.94,279.57 1111.90,280.44 1106.33,279.07 Z" fill="rgb(253,253,253)"/>
</g>
</svg>